# xmcd
# 
# Track frame offsets:
#     150
#     15643
#     39155
#     59145
#     80557
#     100353
#     118732
#     139004
#     161735
#     183119
#     201445
#     218860
#     236984
#     254390
# 
# Disc length: 3731
# 
# Revision: 3
# Processed by: cddbd v1.5.2PL0 Copyright (c) Steve Scherf et al.
# Submitted via: fre:ac v1.0.17
# 
DISCID=cd0e910e
DTITLE=梁玉嶸 - 知音梁品
DYEAR=2004
DGENRE=Vocal
TTITLE0=幾許風雨
TTITLE1=漁舟晚唱
TTITLE2=似是故人來
TTITLE3=誰可相依
TTITLE4=找不著籍口
TTITLE5=萊茵河之戀
TTITLE6=每一步
TTITLE7=再見楊柳
TTITLE8=偶遇
TTITLE9=萬水千山總是情
TTITLE10=香江暖流
TTITLE11=東山飄雨西山情
TTITLE12=信
TTITLE13=玫瑰香片
EXTD=
EXTT0=
EXTT1=
EXTT2=
EXTT3=
EXTT4=
EXTT5=
EXTT6=
EXTT7=
EXTT8=
EXTT9=
EXTT10=
EXTT11=
EXTT12=
EXTT13=
PLAYORDER=
